# xmcd
#
# Track frame offsets: 
#        150
#        4276
#        14230
#        23875
#        34055
#        46593
#        58024
#        75185
#        88129
#        101252
#        116613
#        131568
#        144763
#        157755
#        172550
#        195580
#        208904
#        220421
#        233561
#        247427
#        263058
#        288136
#        302556
#        313836
#        325706
#        342609
#
# Disc length: 4747 seconds
#
# Revision: 0
# Processed by: cddbd v1.5.2PL0 Copyright (c) Steve Scherf et al.
# Submitted via: ExactAudioCopyFreeDBPlugin 1.0
#
DISCID=6012891a
DTITLE=Various Artist - Hi Records:  The Soul Years
DYEAR=2014
DGENRE=Soul
TTITLE0=Willie Mitchell - Introduction
TTITLE1=Willie Mitchell - Buster Brown
TTITLE2=Willie Mitchell - Ooh Baby, You Turn Me On
TTITLE3=Willie Mitchell - Soul Finger
TTITLE4=Don Bryant - She's Looking Good
TTITLE5=Don Bryant - Funky Broadway
TTITLE6=Al Green - I Can't Get Next to You
TTITLE7=Al Green - Right Now, Right Now
TTITLE8=Ann Peebles - Part Time Love
TTITLE9=Ann Peebles - I Still Love You
TTITLE10=Al Green - Let's Stay Together
TTITLE11=Al Green - So You're Leaving
TTITLE12=Otis Clay - Trying to Live My Life Without You
TTITLE13=Otis Clay - Precious Precious
TTITLE14=Al Green - Love and Happiness
TTITLE15=Al Green - I'm Glad You're Mine
TTITLE16=Syl Johnson - Back for a Taste of Your Love
TTITLE17=Syl Johnson - Any Way the Wind Blows
TTITLE18=Al Green - Call Me (Come Back Home)
TTITLE19=Al Green - Stand Up
TTITLE20=Al Green - Let's Get Married
TTITLE21=Al Green - Livin' for Love
TTITLE22=Ann Peebles - I Can't Stand the Rain
TTITLE23=Ann Peebles - Run Run Run
TTITLE24=Al Green - Take Me to the River
TTITLE25=Al Green - Sha-La-La (Make Me Happy)
EXTD=
EXTT0=
EXTT1=
EXTT2=
EXTT3=
EXTT4=
EXTT5=
EXTT6=
EXTT7=
EXTT8=
EXTT9=
EXTT10=
EXTT11=
EXTT12=
EXTT13=
EXTT14=
EXTT15=
EXTT16=
EXTT17=
EXTT18=
EXTT19=
EXTT20=
EXTT21=
EXTT22=
EXTT23=
EXTT24=
EXTT25=
PLAYORDER=
